<?xml version="1.0" standalone="no"?>
<!DOCTYPE svg PUBLIC "-//W3C//DTD SVG 1.1//EN" "http://www.w3.org/Graphics/SVG/1.1/DTD/svg11.dtd">
<svg t="1550654692821" class="icon" style="" viewBox="0 0 1024 1024" version="1.1" xmlns="http://www.w3.org/2000/svg" p-id="3210" xmlns:xlink="http://www.w3.org/1999/xlink" width="200" height="200">
<defs><style type="text/css"></style></defs>
<path d="M563.3 836.4L217.7 649.7c-29.6-17-39.8-145.1-22.7-174.7l199.5-208.6c17.1-29.6 55.2-39.8 84.8-22.7l336.2 94.5c29.6 17.1 49.1 136.7 32.1 166.2L648.1 813.7c-17.1 29.5-55.3 39.8-84.8 22.7z" fill="#C66636" p-id="3211"></path><path d="M594.2 860.8c-13.2 0-26.5-3.3-38.7-10.3L210.1 663.9c-0.1-0.1-0.3-0.1-0.4-0.2-12.9-7.4-29.7-29.9-36.8-94.8-3.9-35.6-3.8-81.1 8.2-101.8 0.6-1.1 1.4-2.1 2.3-3.1l198.2-207.3c10.5-17.1 26.9-29.3 46.4-34.6 19.5-5.2 39.8-2.8 57.4 6.7l334.4 94c1.3 0.4 2.5 0.9 3.7 1.6 10.5 6 29.8 25.7 41.3 89.5 3 16.6 11.6 72.8-3.4 98.7-0.1 0.2-0.3 0.5-0.4 0.7L661.8 822.1c-14.5 24.8-40.7 38.7-67.6 38.7z m-368.6-225l345.3 186.5c0.1 0.1 0.3 0.1 0.4 0.2 10.6 6.1 23 7.7 34.9 4.5 11.9-3.2 21.8-10.8 28-21.4 0.1-0.2 0.3-0.5 0.4-0.7l199.2-308.8c4.9-9.1 6-40-0.6-76.6-6.9-38.1-18-60.9-24.6-66.5l-333.7-93.8c-1.3-0.4-2.5-0.9-3.7-1.6-10.6-6.1-23-7.7-34.9-4.5-11.9 3.2-21.8 10.8-28 21.4-0.6 1.1-1.4 2.1-2.3 3.1L208.2 484.5c-4.9 10.9-7.5 43-3.4 80.8 5.1 46.7 16.1 67.5 20.8 70.5z" fill="#83394A" p-id="3212"></path><path d="M172.2 327.9c-29.5 0-52.9-22.7-53.6-52.3-0.3-14.9 4.9-28.6 14.6-38.8 9.6-10 23-15.7 37.6-16 30.7-0.6 54.1 21.9 54.7 52.1 0.6 30.6-21.8 54.2-52.1 54.9-0.4 0.1-0.8 0.1-1.2 0.1z m-1-82.9c-8.1 0.2-15.5 3.2-20.7 8.6-5.3 5.5-8.1 13.1-7.9 21.6 0.4 16.7 13.3 29 30.2 28.7 16.9-0.4 28.9-13.1 28.5-30.3-0.2-17.2-12.6-28.9-30.1-28.6z" fill="#8C4D55" p-id="3213"></path><path d="M261 148.1c-29.5 0-58.9 0.1-88.4-0.1-7.3 0-17.9 1.6-18.2-8.2-0.4-12 11.3-9.6 18.8-9.7 58.9-0.3 117.9-0.2 176.8-0.1 6.6 0 15.8-1.2 16.2 8.2 0.4 10.9-9.5 9.7-16.8 9.8-29.5 0.2-58.9 0.1-88.4 0.1z" fill="#E5BB54" p-id="3214"></path><path d="M186.1 200.7h-69.8c-6 0-13.7 1.1-14.1-7.7-0.4-8.7 7-8.6 13.3-8.6 47.9 0 95.8-0.1 143.7 0 6.1 0 14-0.6 14.1 7.9 0.2 10.4-8.9 8.4-15.3 8.4-24 0.1-47.9 0-71.9 0z" fill="#E5B747" p-id="3215"></path><path d="M846.4 802.4h-0.1c-5.2 0-9.9-3.5-11.4-8.5-9-29.3-26.2-47.2-57.5-60-4.7-1.9-7.7-6.5-7.5-11.6 0.2-5 3.5-9.4 8.3-11 28.4-9.4 46.1-27.2 57.4-57.7 1.8-4.8 6.5-8 11.6-7.9 5.1 0.1 9.6 3.5 11.2 8.4 9.3 29 26.3 46.4 56.9 58.3 4.7 1.8 7.7 6.3 7.7 11.3 0 5-3.2 9.5-7.9 11.2-30.2 11.2-47.3 28.9-57.2 59.2-1.6 4.9-6.3 8.3-11.5 8.3z m-36.5-79c15.7 9.8 27.8 22 36.6 37.1 9.1-15.6 21.1-27.7 36.7-37-15.7-9.6-27.8-21.7-36.7-36.8-9.4 15.7-21.5 27.8-36.6 36.7z" fill="#EC8092" p-id="3216"></path><path d="M750.6 814.3c1.5 7.8 5.8 12.9 13.6 12.8 7.6-0.2 13.1-4.9 13.1-12.7 0-8.6-5.4-13.8-14.3-13.4-8.1 0.4-11.2 6.3-12.4 13.3zM850.5 858.6c-8.8 1.9-15.4 4.5-15.5 14.2 0 8.9 3.9 13.9 13.2 14.4 9.6 0.5 14-5.2 14.7-13.2 0.9-8.9-6.1-12.6-12.4-15.4z" fill="#EC8092" p-id="3217"></path><path d="M553.9 755L208.4 568.3c-29.6-17.1-39.8-55.2-22.7-84.8L385.2 185c17.1-29.6 55.2-39.8 84.8-22.7l345.6 176c29.6 17.1 39.8 55.2 22.7 84.8L638.7 732.2c-17.1 29.6-55.2 39.8-84.8 22.8z" fill="#FFB56C" p-id="3218"></path><path d="M584.7 779.3c-13.4 0-26.7-3.5-38.6-10.3L200.7 582.4c-0.1-0.1-0.3-0.1-0.4-0.2-18-10.4-30.9-27.3-36.3-47.5-5.4-20.2-2.7-41.3 7.7-59.3l0.6-0.9 199.2-298.1c21.6-36.8 69-49.5 106.1-28.3L822.8 324c0.3 0.1 0.5 0.3 0.7 0.4 18 10.4 30.9 27.3 36.3 47.5 5.4 20.2 2.7 41.3-7.7 59.3-0.1 0.2-0.3 0.5-0.4 0.7L652.4 740.6c-10.4 17.8-27.2 30.6-47.2 36-6.8 1.8-13.7 2.7-20.5 2.7z m-368.5-225l345.3 186.6c0.1 0.1 0.3 0.1 0.4 0.2 10.6 6.1 23 7.7 34.9 4.5 11.9-3.2 21.8-10.8 28-21.4 0.1-0.2 0.3-0.5 0.4-0.7l199.3-308.8c12.4-21.8 4.9-49.6-16.7-62.3L462.7 176.6c-0.3-0.1-0.5-0.3-0.7-0.4-10.6-6.1-23-7.7-34.9-4.5-11.9 3.2-21.8 10.8-28 21.4l-0.6 0.9-199.2 298c-5.9 10.5-7.4 22.7-4.3 34.5 3.2 11.8 10.7 21.7 21.2 27.8z" fill="#83394A" p-id="3219"></path><path d="M548.6 668.6L299.8 534.2c-21.3-12.3-28.6-39.8-16.4-61L427 258.3c12.3-21.3 39.8-28.6 61-16.4l248.8 126.7c21.3 12.3 28.6 39.8 16.4 61L609.7 652.2c-12.3 21.3-39.8 28.7-61.1 16.4z" fill="#FF794A" p-id="3220"></path><path d="M570.8 690.6c-10.2 0-20.6-2.6-30.1-8L292.2 548.3c-0.1-0.1-0.3-0.1-0.4-0.2-14-8.1-24-21.2-28.3-36.9-4.2-15.7-2.1-32.1 6-46.1l0.6-0.9 143.4-214.5c8.1-13.8 21.1-23.6 36.6-27.8 15.6-4.2 31.8-2.1 45.7 5.8l248.4 126.5c0.3 0.1 0.5 0.3 0.7 0.4 14 8.1 24 21.2 28.3 36.9 4.2 15.7 2.1 32.1-6 46.1-0.1 0.2-0.3 0.5-0.4 0.7L623.3 660.6c-11.2 19.3-31.6 30-52.5 30zM307.7 520.2l248.6 134.3c0.1 0.1 0.3 0.1 0.4 0.2 13.7 7.9 31.2 3.2 39.1-10.5 0.1-0.2 0.3-0.5 0.4-0.7l143.4-222.2c3.7-6.5 4.6-14.1 2.6-21.4-2-7.3-6.6-13.4-13-17.2L480.9 256.2c-0.3-0.1-0.5-0.3-0.7-0.4-6.6-3.8-14.3-4.8-21.7-2.8-7.4 2-13.6 6.7-17.4 13.3l-0.6 0.9-143.4 214.4c-3.6 6.5-4.5 14-2.6 21.3 2 7.4 6.7 13.5 13.2 17.3z" fill="#83394A" p-id="3221"></path><path d="M560.1 409.3c-15.9 6.3-33.4-0.5-39.2-15.1l-21-52.9c-5.7-14.6 2.5-31.5 18.3-37.7 15.8-6.3 33.3 0.4 39.2 14.9l21 52.9c5.7 14.7-2.4 31.6-18.3 37.9z m63 158.8c-7.6 3-16 3.1-23.4 0.3-7.4-2.8-13.1-8.4-15.8-15.4l-21-52.9c-5.7-14.6 2.5-31.5 18.3-37.7 15.8-6.3 33.3 0.4 39.2 14.9l21 52.9c5.7 14.7-2.4 31.6-18.3 37.9zM445.3 454.9c-15.9 6.3-33.4-0.5-39.2-15.1l-21-52.9c-5.8-14.6 2.4-31.6 18.2-37.9 15.9-6.3 33.4 0.5 39.2 15.1l21 52.9c5.8 14.7-2.4 31.6-18.2 37.9z m63 158.8c-15.9 6.3-33.4-0.5-39.2-15.1l-21-52.9c-5.8-14.6 2.4-31.6 18.2-37.9 15.9-6.3 33.4 0.5 39.2 15.1l21 52.9c5.8 14.6-2.4 31.6-18.2 37.9z m0 0" fill="#EFD080" p-id="3222"></path><path d="M496.1 632.1c-5.8 0-11.5-1-16.9-3.1-11.6-4.5-20.5-13.2-25-24.4l-21-52.9c-4.5-11.3-4-23.7 1.4-34.9 5.2-10.8 14.3-19.2 25.8-23.8 11.4-4.5 23.9-4.7 35.1-0.4 11.6 4.5 20.5 13.2 25 24.4l21 52.9c9.1 22.8-3.1 49.2-27.2 58.7-6 2.3-12.1 3.5-18.2 3.5z m-17.6-110.6c-2.1 0-4.2 0.4-6.3 1.2-3.9 1.6-7 4.3-8.7 7.8-0.9 1.8-2.1 5.3-0.5 9.2l21 52.9c1.5 3.8 4.8 5.6 6.7 6.3 3.6 1.4 7.8 1.3 11.7-0.2 7.6-3 11.7-10.6 9.2-17l-21-52.9c-1.5-3.8-4.8-5.6-6.7-6.3-1.7-0.6-3.6-1-5.4-1z m132.4 65c-5.8 0-11.5-1-16.9-3.1-11.5-4.4-20.6-13.3-25-24.4l-21-53c-8.9-22.8 3.3-49.1 27.3-58.6 23.9-9.5 50.8 1.2 60 23.8l21 53c9.1 22.8-3.2 49.2-27.2 58.7-5.9 2.5-12.1 3.6-18.2 3.6z m12.2-18.4z m-29.7-92c-2.1 0-4.2 0.4-6.3 1.2-7.6 3-11.7 10.6-9.2 17l21 52.8c1.1 2.8 3.5 5.1 6.7 6.3 3.6 1.4 7.8 1.3 11.7-0.2 7.6-3 11.7-10.7 9.2-17l-21-52.9c-1.9-4.6-6.7-7.2-12.1-7.2z m-160.3-2.8c-18.2 0-35.2-10.4-42-27.5l-21-52.9c-9.1-22.8 3.2-49.2 27.2-58.7 11.4-4.5 23.9-4.7 35.1-0.4 11.6 4.5 20.5 13.2 25 24.4l21 52.9c9.1 22.8-3.1 49.2-27.2 58.7-6 2.4-12.1 3.5-18.1 3.5z m-17.6-110.5c-2.1 0-4.2 0.4-6.3 1.2-7.6 3-11.7 10.6-9.2 17l21 52.9c2.5 6.4 10.8 9.1 18.4 6.1 7.6-3 11.7-10.6 9.2-17l-21-52.9c-1.5-3.8-4.8-5.6-6.7-6.3-1.8-0.7-3.6-1-5.4-1z m132.4 64.9c-5.8 0-11.5-1-16.9-3.1-11.6-4.5-20.5-13.2-25-24.4l-21-52.9c-8.9-22.8 3.3-49.1 27.3-58.6 23.9-9.5 50.8 1.2 60 23.9l21 53c9.1 22.8-3.2 49.2-27.2 58.7-5.9 2.3-12.1 3.4-18.2 3.4z m12.2-18.4z m-29.7-92c-2.1 0-4.2 0.4-6.3 1.2-7.6 3-11.7 10.6-9.2 17l21 52.8c1.5 3.8 4.8 5.6 6.7 6.3 3.6 1.4 7.8 1.3 11.7-0.2 7.6-3 11.7-10.6 9.2-17l-21-52.9c-1.9-4.5-6.7-7.2-12.1-7.2z" fill="#83394A" p-id="3223"></path><path d="M465 411.1c5.5 16.1-2.1 33.4-17 38.4l-53.9 18.4c-14.9 5-31.3-4-36.8-20.1-5.5-16.1 2-33.2 16.9-38.4l53.9-18.4c14.9-5.1 31.4 3.9 36.9 20.1zM626.7 356c2.6 7.8 2.3 16.2-0.8 23.4-3.2 7.2-9 12.6-16.1 15.1l-53.9 18.4c-14.9 5-31.3-4-36.8-20.1-5.5-16.1 2-33.2 16.8-38.4l53.9-18.4c14.9-5.1 31.4 3.8 36.9 20zM504.8 528c5.5 16.2-2.1 33.4-17 38.4L434 584.8c-14.9 5.1-31.4-3.9-36.9-20.1-5.5-16.1 2.1-33.4 17-38.4l53.9-18.4c14.8-5 31.3 4 36.8 20.1z m161.7-55.1c5.5 16.2-2.1 33.4-17 38.4l-53.9 18.4c-14.9 5.1-31.4-3.9-36.9-20.1-5.5-16.1 2.1-33.4 17-38.4l53.9-18.4c14.9-5 31.4 4 36.9 20.1z m0 0" fill="#EFD080" p-id="3224"></path><path d="M425.4 602.3c-7.2 0-14.4-1.8-21-5.5-10.5-5.7-18.5-15.3-22.5-26.9-4-11.6-3.5-24.1 1.4-35 5-11.4 14.2-19.8 25.6-23.8l53.9-18.4c23.2-7.9 48.9 5.6 57.3 30.1 8.3 24.5-3.8 50.9-27 58.8l-54 18.4c-4.5 1.6-9.1 2.3-13.7 2.3z m51.1-79.7c-1.1 0-2.3 0.2-3.4 0.6l-53.9 18.4c-3.9 1.3-5.8 4.6-6.6 6.4-1.6 3.6-1.7 7.7-0.3 11.7 1.4 4 4 7.2 7.4 9.1 1.7 0.9 5.2 2.3 9.1 1l53.9-18.4c6.5-2.2 9.6-10.3 7-18-2.2-6.6-7.7-10.8-13.2-10.8z m110.7 24.6c-18.9 0-36.9-12.6-43.6-32.4-4-11.6-3.5-24.1 1.4-35 5-11.4 14.2-19.8 25.6-23.8l53.9-18.4c23.2-7.9 48.9 5.6 57.3 30.1 4 11.6 3.5 24.1-1.4 35-5 11.4-14.2 19.9-25.6 23.8l-53.9 18.4c-4.6 1.6-9.2 2.3-13.7 2.3z m51-79.7c-1.1 0-2.3 0.2-3.4 0.6l-53.9 18.4c-3.9 1.3-5.8 4.6-6.6 6.3-1.6 3.6-1.7 7.7-0.3 11.7 2.6 7.7 10.1 12.3 16.5 10l53.9-18.4c3.9-1.3 5.8-4.6 6.6-6.3 1.6-3.6 1.7-7.7 0.3-11.7-2.1-6.4-7.6-10.6-13.1-10.6z m-252.4 17.8c-18.9 0-37-12.6-43.7-32.3-8.3-24.4 3.7-50.7 26.8-58.7l54-18.4c23.2-7.9 48.9 5.6 57.3 30.1 8.3 24.5-3.8 50.9-27 58.8l-53.9 18.4c-4.5 1.4-9 2.1-13.5 2.1z m50.9-79.6c-1.1 0-2.3 0.2-3.4 0.6l-53.9 18.4c-6.4 2.2-9.5 10.3-6.8 18 2.6 7.7 10 12.2 16.5 10.1l53.8-18.3c6.5-2.2 9.6-10.3 7-18-2.3-6.7-7.8-10.8-13.2-10.8z m110.8 24.5c-18.9 0-37-12.6-43.7-32.3-8.3-24.4 3.7-50.7 26.8-58.7l54-18.4c23.2-7.9 48.9 5.6 57.3 30.1 4 11.6 3.5 24.1-1.4 35-5 11.3-14.3 19.9-25.6 23.8L561 428c-4.5 1.5-9 2.2-13.5 2.2z m50.8-79.6c-1.1 0-2.3 0.2-3.4 0.6L541 369.6c-6.4 2.2-9.5 10.3-6.8 18 2.6 7.7 10 12.2 16.5 10.1l53.8-18.3c2.9-1 5.3-3.2 6.6-6.4 1.5-3.5 1.7-7.8 0.3-11.7-2.1-6.5-7.6-10.7-13.1-10.7z" fill="#83394A" p-id="3225"></path><path d="M697.4 398.4c-8.8 1.9-15.4 4.5-15.5 14.2 0 8.9 3.9 13.9 13.2 14.4 9.6 0.5 14-5.2 14.7-13.2 0.9-9-6.1-12.6-12.4-15.4zM570.4 605.1c-8.8 1.9-15.4 4.5-15.5 14.2 0 8.9 3.9 13.9 13.2 14.4 9.6 0.5 14-5.2 14.7-13.2 0.9-9-6-12.6-12.4-15.4zM455.6 273.6c-8.8 1.9-15.4 4.5-15.5 14.2 0 8.9 3.9 13.9 13.2 14.4 9.6 0.5 14-5.2 14.7-13.2 0.9-8.9-6-12.6-12.4-15.4zM330.9 487.8c-8.8 1.9-15.4 4.5-15.5 14.2 0 8.9 3.9 13.9 13.2 14.4 9.6 0.5 14-5.2 14.7-13.2 0.9-8.9-6-12.6-12.4-15.4z" fill="#FFFFFF" p-id="3226"></path>
</svg>